<svg xmlns="http://www.w3.org/2000/svg" width="24" height="24" viewBox="0 0 24 24" fill="currentColor">
  <path d="M12 2.163c3.204 0 3.584.012 4.85.07 3.252.147 4.771 1.691 4.918 4.918.058 1.266.069 1.646.069 4.849s-.012 3.584-.07 4.85c-.147 3.225-1.664 4.771-4.918 4.918-1.266.058-1.646.069-4.85.069s-3.584-.012-4.85-.07c-3.252-.147-4.771-1.691-4.918-4.918C2.175 15.584 2.163 15.204 2.163 12s.012-3.584.07-4.85c.147-3.225 1.664-4.771 4.918-4.918C8.416 2.175 8.796 2.163 12 2.163m0-2.163C8.741 0 8.332.012 7.052.07 3.173.225.225 3.173.07 7.052.012 8.332 0 8.741 0 12s.012 3.668.07 4.948c.155 3.878 3.103 6.827 6.982 6.982C8.332 23.988 8.741 24 12 24s3.668-.012 4.948-.07c3.878-.155 6.827-3.103 6.982-6.982.058-1.28.07-1.689.07-4.948s-.012-3.668-.07-4.948c-.155-3.878-3.103-6.827-6.982-6.982C15.668.012 15.259 0 12 0z"/>
  <path d="M12 5.838a6.162 6.162 0 100 12.324 6.162 6.162 0 000-12.324zm0 10.162a3.999 3.999 0 110-7.998 3.999 3.999 0 010 7.998zM18.406 4.594a1.44 1.44 0 10-2.88 0 1.44 1.44 0 002.88 0z"/>
</svg>
