<svg xmlns="http://www.w3.org/2000/svg" width="24" height="24" viewBox="0 0 24 24" fill="currentColor">
  <path d="M22.23 0H1.77C.792 0 0 .774 0 1.728v20.543C0 23.226.792 24 1.77 24h20.46c.978 0 1.77-.774 1.77-1.729V1.728C24 .774 23.208 0 22.23 0zM7.12 20.452H3.56V9.169h3.56v11.283zM5.34 7.688a2.067 2.067 0 110-4.134 2.067 2.067 0 010 4.134zM20.452 20.452h-3.56v-5.499c0-1.311-.025-3.002-1.83-3.002-1.832 0-2.114 1.432-2.114 2.91v5.591H9.388V9.169h3.417v1.544h.048c.478-.902 1.646-1.85 3.389-1.85 3.624 0 4.31 2.384 4.31 5.488v6.101z"/>
</svg>
